# xmcd CD database file
#
# Track frame offsets:
#	150
#	12497
#	25697
#	39665
#	51647
#	66132
#	76592
#	91152
#	104442
#	116625
#	129287
#	142160
#	154985
#	166627
#	178785
#	194367
#	211537
#	227015
#	241365
#
# Disc length: 3403 seconds
#
# Revision: 0
# Processed by: cddbd v1.4PL0 Copyright (c) Steve Scherf et al.
# Submitted via: CDex 1.50beta9
#
DISCID=f90d4913
DTITLE=John Lee Hooker - Alone (The Specialty Sessions 1948-1954 Disc 2)
DYEAR=1900
DGENRE=Blues
TTITLE0=Rollin' Blues
TTITLE1=Do My Baby Think Of Me
TTITLE2=Three Long Years Today
TTITLE3=Strike Blues
TTITLE4=Grinder Man
TTITLE5=Walkin' This Highway
TTITLE6=Four Women In My Life
TTITLE7=I Need Lovin'
TTITLE8=Reach My Goal (Find Me A Woman)
TTITLE9=I'm Mad
TTITLE10=Everybody's Blues
TTITLE11=Locked Up In Jail
TTITLE12=I Been Done So Wrong (Take 1)
TTITLE13=I Been Done So Wrong (Take 2)
TTITLE14=I Do Like I Please
TTITLE15=Don't Trust Nobody
TTITLE16=Nothin' But Trouble
TTITLE17=I Need Love So Bad
TTITLE18=Odds Against Me
EXTD=
EXTT0=
EXTT1=
EXTT2=
EXTT3=
EXTT4=
EXTT5=
EXTT6=
EXTT7=
EXTT8=
EXTT9=
EXTT10=
EXTT11=
EXTT12=
EXTT13=
EXTT14=
EXTT15=
EXTT16=
EXTT17=
EXTT18=
PLAYORDER=
